<svg width="180" height="180" viewBox="0 0 180 180" fill="none" xmlns="http://www.w3.org/2000/svg">
<circle cx="90" cy="90" r="90" fill="#8800FF"/>
<path d="M77.7952 125.155C73.7041 125.155 70.3754 128.485 70.3754 132.578C70.3754 136.67 73.7039 140 77.7952 140C81.8864 140 85.215 136.67 85.215 132.578C85.215 128.485 81.8864 125.155 77.7952 125.155ZM77.7952 136.093C75.8574 136.093 74.2806 134.516 74.2806 132.578C74.2806 130.639 75.8574 129.062 77.7952 129.062C79.7331 129.062 81.3098 130.639 81.3098 132.578C81.3098 134.516 79.7331 136.093 77.7952 136.093Z" fill="white"/>
<path d="M113.605 125.155C109.514 125.155 106.185 128.485 106.185 132.578C106.185 136.67 109.514 140 113.605 140C117.696 140 121.025 136.67 121.025 132.578C121.025 128.485 117.697 125.155 113.605 125.155ZM113.605 136.093C111.667 136.093 110.09 134.516 110.09 132.578C110.09 130.639 111.667 129.062 113.605 129.062C115.543 129.062 117.12 130.639 117.12 132.578C117.12 134.516 115.543 136.093 113.605 136.093Z" fill="white"/>
<path d="M131.293 91.6594C130.235 91.4552 129.21 92.1484 129.006 93.208L126.168 107.946C125.992 108.863 125.185 109.529 124.251 109.529H67.9045L60.2573 76.2589H80.3364C81.4149 76.2589 82.2889 75.3844 82.2889 74.3057C82.2889 73.227 81.4147 72.3525 80.3364 72.3525H59.3592L57.2766 63.2916C56.6616 60.6145 54.314 58.7448 51.5679 58.7448H41.9525C40.8742 58.7446 40 59.6191 40 60.698C40 61.7768 40.8742 62.6511 41.9525 62.6511H51.5681C52.4835 62.6511 53.2659 63.2742 53.471 64.1667L66.6021 121.296C66.806 122.183 67.5953 122.812 68.5051 122.812H118.309C119.387 122.812 120.261 121.937 120.261 120.858C120.261 119.78 119.387 118.905 118.309 118.905H70.0595L68.8025 113.436H124.251C127.054 113.436 129.473 111.438 130.003 108.685L132.841 93.9473C133.045 92.8875 132.352 91.8636 131.293 91.6594Z" fill="white"/>
<path d="M139.245 66.3801C140.485 64.3642 140.174 61.7958 138.488 60.1349L136.538 58.2134C136.299 57.9779 136.176 57.6513 136.199 57.3166L136.395 54.5719C136.564 52.1997 135.092 50.0636 132.816 49.3773L130.233 48.5985C129.91 48.501 129.648 48.2675 129.514 47.958L128.433 45.4637C127.496 43.302 125.139 42.0627 122.828 42.516L120.208 43.0304C119.875 43.0955 119.533 43.0109 119.269 42.7977L117.183 41.1132C115.346 39.6291 112.678 39.6287 110.84 41.1132L108.754 42.7977C108.49 43.0109 108.148 43.0959 107.815 43.0302L105.195 42.5158C102.884 42.062 100.526 43.3016 99.59 45.4629L98.5087 47.9578C98.3745 48.2675 98.1124 48.5008 97.7894 48.5983L95.2076 49.3769C92.9314 50.0634 91.4598 52.1995 91.6287 54.5715L91.824 57.3164C91.8478 57.6509 91.7244 57.9776 91.4857 58.213L89.5358 60.1345C87.8498 61.7956 87.5387 64.3638 88.7789 66.3797L90.2207 68.7237C90.3961 69.0089 90.4379 69.3551 90.3356 69.674L89.4918 72.2985C88.7662 74.5557 89.683 76.9776 91.7209 78.1877L94.0582 79.5759C94.3472 79.7474 94.5453 80.036 94.6017 80.3675L95.0615 83.0665C95.4623 85.4186 97.4062 87.1438 99.7882 87.2622L102.465 87.3953C102.803 87.4121 103.114 87.5764 103.319 87.8456L104.951 89.994C105.927 91.2776 107.443 91.9827 108.988 91.9827C109.706 91.9827 110.429 91.8307 111.107 91.514L113.527 90.3837C113.835 90.2399 114.187 90.2399 114.495 90.3837L116.915 91.514C119.054 92.513 121.643 91.8737 123.071 89.9934L124.703 87.8458C124.908 87.5762 125.219 87.4121 125.557 87.3953L128.234 87.262C130.616 87.1436 132.56 85.4184 132.961 83.0663L133.421 80.3674C133.477 80.0358 133.675 79.7474 133.964 79.5757L136.301 78.1877C138.339 76.9776 139.256 74.5557 138.531 72.2985L137.687 69.674C137.584 69.3551 137.626 69.0089 137.802 68.7239L139.245 66.3801ZM135.919 64.3328L134.477 66.6769C133.703 67.9351 133.518 69.4636 133.97 70.8699L134.814 73.4944C134.979 74.0059 134.771 74.5547 134.309 74.8288L131.972 76.2168C130.696 76.9744 129.822 78.2479 129.572 79.7111L129.112 82.4098C129.022 82.9426 128.581 83.3336 128.041 83.3605L125.364 83.4938C123.872 83.568 122.498 84.2927 121.594 85.4823L119.963 87.6299C119.639 88.0556 119.053 88.2006 118.568 87.9743L116.148 86.8441C114.791 86.2097 113.233 86.2099 111.875 86.8441L109.456 87.9743C108.971 88.201 108.384 88.0558 108.061 87.6299L106.429 85.4815C105.525 84.2923 104.151 83.5676 102.659 83.4934L99.9827 83.3603C99.4431 83.3336 99.0025 82.9426 98.9117 82.4096L98.4519 79.7107C98.2025 78.2477 97.3279 76.974 96.0521 76.2166L93.7148 74.8286C93.2531 74.5543 93.0455 74.0057 93.2099 73.4942L94.0537 70.8697C94.5056 69.4632 94.3213 67.9349 93.5472 66.6765L92.1053 64.3324C91.8242 63.8758 91.8947 63.2938 92.2767 62.9175L94.2269 60.9957C95.2808 59.9571 95.825 58.5148 95.7199 57.0388L95.5246 54.2939C95.4863 53.7566 95.8199 53.2725 96.3353 53.117L98.9171 52.3384C100.342 51.9086 101.5 50.8781 102.092 49.5119L103.173 47.0169C103.356 46.5951 103.778 46.328 104.226 46.328C104.299 46.328 104.371 46.335 104.443 46.3491L107.064 46.8633C108.532 47.1523 110.043 46.7778 111.208 45.837L113.293 44.1525C113.71 43.8161 114.314 43.8162 114.731 44.1525L116.816 45.837C117.981 46.7776 119.491 47.1515 120.96 46.8635L123.58 46.3493C124.104 46.2458 124.638 46.5275 124.85 47.0171L125.931 49.5115C126.523 50.8783 127.681 51.9088 129.106 52.3386L131.689 53.1174C132.204 53.2729 132.538 53.7568 132.499 54.2943L132.304 57.039C132.199 58.515 132.743 59.9573 133.797 60.9961L135.747 62.9177C136.129 63.294 136.2 63.8758 135.919 64.3328Z" fill="white"/>
<path d="M118.532 57.1427C117.593 56.6122 116.402 56.9438 115.872 57.8834L106.816 73.9303C106.286 74.8699 106.617 76.0611 107.557 76.5914C107.86 76.7628 108.189 76.8442 108.515 76.8442C109.196 76.8442 109.858 76.4867 110.217 75.8507L119.272 59.8038C119.802 58.8642 119.471 57.673 118.532 57.1427Z" fill="white"/>
<path d="M119.894 67.4036C117.094 67.4036 114.816 69.6824 114.816 72.4835C114.816 75.2846 117.094 77.5635 119.894 77.5635C122.694 77.5635 124.973 75.2846 124.973 72.4835C124.973 69.6824 122.694 67.4036 119.894 67.4036ZM119.894 73.6571C119.247 73.6571 118.721 73.1308 118.721 72.4837C118.721 71.8366 119.247 71.3103 119.894 71.3103C120.541 71.3103 121.067 71.8366 121.067 72.4837C121.067 73.1308 120.541 73.6571 119.894 73.6571Z" fill="white"/>
<path d="M108.131 54.418C105.33 54.418 103.052 56.697 103.052 59.4982C103.052 62.2994 105.33 64.5783 108.131 64.5783C110.931 64.5783 113.209 62.2994 113.209 59.4982C113.209 56.697 110.931 54.418 108.131 54.418ZM108.13 60.6719C107.484 60.6719 106.957 60.1455 106.957 59.4984C106.957 58.8513 107.484 58.3249 108.13 58.3249C108.777 58.3249 109.303 58.8513 109.303 59.4984C109.303 60.1453 108.777 60.6719 108.13 60.6719Z" fill="white"/>
</svg>
