<svg width="180" height="180" viewBox="0 0 180 180" fill="none" xmlns="http://www.w3.org/2000/svg">
<circle cx="90" cy="90" r="90" fill="#8800FF"/>
<g clip-path="url(#clip0_1320_858)">
<path d="M79.2445 65.8045C73.1679 65.8045 68.2234 70.1459 68.2234 75.4824C68.2241 75.8849 68.2572 76.2867 68.3227 76.6842C66.6637 77.4122 65.2438 78.5938 64.2278 80.0937C63.2111 81.5929 62.6393 83.3499 62.5781 85.1602C62.5868 87.2261 63.3191 89.2236 64.6476 90.8056C63.3191 92.3876 62.5868 94.3851 62.5781 96.451C62.6256 98.2505 63.1822 100 64.1824 101.497C65.1833 102.993 66.5874 104.175 68.2328 104.907C68.4661 110.062 73.3171 114.194 79.2445 114.194C82.5754 114.244 85.7653 112.849 87.9895 110.369C88.2444 110.076 88.3848 109.7 88.3848 109.311V70.6879C88.3848 70.299 88.2444 69.9232 87.9895 69.6294C85.7653 67.1494 82.5754 65.7545 79.2445 65.805L79.2445 65.8045ZM79.2445 110.968C77.5063 111.081 75.784 110.576 74.3812 109.543C72.9785 108.51 71.9856 107.015 71.5781 105.321C72.872 104.978 74.019 104.223 74.8463 103.17C75.6729 102.117 76.1352 100.823 76.1618 99.4849H72.936C72.9065 100.18 72.6357 100.843 72.1706 101.36C71.7054 101.878 71.0754 102.218 70.3877 102.321C69.1161 101.927 67.9951 101.154 67.1755 100.105C66.3561 99.0558 65.8773 97.7806 65.8038 96.4514C65.8377 94.7318 66.6225 93.1131 67.9524 92.0222C68.3038 91.7154 68.5047 91.2719 68.5047 90.806C68.5047 90.3401 68.3038 89.8965 67.9524 89.5898C66.6225 88.4988 65.8376 86.8801 65.8038 85.1606C65.8852 83.7708 66.4058 82.4423 67.2915 81.368C68.1771 80.2936 69.3818 79.5289 70.7311 79.1846L70.7441 79.1774V79.1767C71.4778 79.2329 72.1662 79.554 72.6796 80.0811C73.193 80.609 73.4961 81.3053 73.5329 82.0405H76.7587C76.727 80.5802 76.1827 79.1782 75.2221 78.0786C74.2608 76.9791 72.9439 76.2525 71.5015 76.0256C71.4727 75.8463 71.4547 75.6649 71.4489 75.4827C71.4489 71.924 74.9456 69.0308 79.2442 69.0308C81.4397 68.9933 83.5632 69.8171 85.1588 71.3256V86.3249C82.4183 86.8901 80.1854 88.8717 79.2975 91.5261L79.2205 91.7579L82.2793 92.779L82.3564 92.5471V92.5464C82.8049 91.2099 83.8361 90.1493 85.1588 89.6631V108.672C83.5631 110.181 81.4397 111.005 79.2442 110.967L79.2445 110.968Z" fill="#F7F6FB"/>
<path d="M97.0868 73.2112C97.3906 73.6253 97.8738 73.8694 98.3872 73.8694H101.318C102.087 75.1879 103.434 76.0656 104.951 76.2349C106.468 76.4041 107.976 75.8453 109.017 74.7292C110.059 73.6123 110.509 72.0691 110.234 70.5671C109.959 69.0658 108.989 67.7826 107.62 67.1078C106.251 66.4331 104.643 66.446 103.284 67.1431C101.926 67.8394 100.977 69.1376 100.726 70.6433H99.2052L96.1399 66.4625C95.8353 66.0484 95.3522 65.8043 94.8388 65.8043H90V69.0303H94.0214L97.0868 73.2112ZM105.483 69.8369C106.136 69.8369 106.724 70.23 106.974 70.8327C107.223 71.4355 107.085 72.1289 106.624 72.5905C106.162 73.0521 105.469 73.1896 104.866 72.9397C104.264 72.6906 103.87 72.1022 103.87 71.4499C103.871 70.5591 104.593 69.8376 105.483 69.8369Z" fill="white"/>
<path d="M108.037 81.9343H101.417L98.0321 77.7001C97.7261 77.3178 97.2623 77.0953 96.772 77.0953H90.3203V80.3212H95.9972L99.3822 84.5554C99.6889 84.9377 100.153 85.1602 100.642 85.1602H108.037C108.548 86.6069 109.716 87.7251 111.183 88.1738C112.65 88.6232 114.243 88.3495 115.477 87.4372C116.71 86.5248 117.437 85.0811 117.437 83.5472C117.437 82.0127 116.71 80.569 115.476 79.6567C114.243 78.7444 112.65 78.4715 111.182 78.9201C109.716 79.3694 108.548 80.4877 108.037 81.9344V81.9343ZM114.192 83.5472C114.192 84.1996 113.798 84.7879 113.196 85.0371C112.593 85.287 111.9 85.1494 111.438 84.6878C110.976 84.2263 110.839 83.5328 111.089 82.9301C111.338 82.3274 111.926 81.9343 112.579 81.9343C113.469 81.935 114.191 82.6565 114.192 83.5472Z" fill="white"/>
<path d="M105.483 103.71C103.762 103.716 102.175 104.638 101.318 106.13H98.3871C97.8737 106.13 97.3906 106.374 97.0867 106.788L94.0214 110.969H90V114.195H94.8388C95.3529 114.195 95.8353 113.951 96.1399 113.537L99.2052 109.356H100.727H100.726C100.934 110.574 101.599 111.665 102.587 112.407C103.575 113.149 104.808 113.484 106.035 113.345C107.262 113.205 108.389 112.601 109.185 111.657C109.981 110.713 110.385 109.5 110.314 108.266C110.244 107.034 109.704 105.875 108.806 105.027C107.907 104.18 106.718 103.709 105.483 103.71L105.483 103.71ZM105.483 110.162C104.831 110.162 104.243 109.769 103.993 109.167C103.744 108.564 103.882 107.87 104.343 107.409C104.804 106.947 105.498 106.81 106.1 107.06C106.703 107.309 107.096 107.897 107.096 108.549C107.095 109.44 106.374 110.162 105.483 110.162Z" fill="white"/>
<path d="M112.258 91.6122C111.26 91.6151 110.288 91.9269 109.475 92.5044C108.662 93.0819 108.048 93.897 107.716 94.8381H100.323C99.8331 94.8381 99.3701 95.0606 99.0633 95.443L95.6769 99.6771H90V102.903H96.4517C96.942 102.903 97.405 102.681 97.7118 102.298L101.098 98.0641H107.716C108.115 99.1816 108.91 100.113 109.951 100.682C110.992 101.25 112.206 101.416 113.362 101.147C114.518 100.878 115.533 100.193 116.216 99.2227C116.899 98.2528 117.201 97.0654 117.065 95.8873C116.928 94.7085 116.362 93.6212 115.476 92.8327C114.59 92.045 113.444 91.61 112.258 91.6122L112.258 91.6122ZM112.258 98.0641C111.606 98.0641 111.018 97.6709 110.768 97.0682C110.518 96.4655 110.656 95.7721 111.118 95.3105C111.579 94.8489 112.273 94.7114 112.875 94.9613C113.478 95.2104 113.871 95.7987 113.871 96.4511C113.87 97.3419 113.148 98.0634 112.258 98.0641Z" fill="white"/>
<path d="M137.471 79.0696H134.328C133.675 79.0495 133.045 78.8212 132.531 78.4187C132.016 78.0161 131.643 77.4603 131.466 76.8316C130.717 74.477 129.767 72.1906 128.628 69.9981C128.307 69.4271 128.176 68.7689 128.255 68.1187C128.335 67.4685 128.62 66.86 129.069 66.3833L131.303 64.1482C131.848 63.6024 131.931 62.7469 131.499 62.1068C127.888 56.7307 123.266 52.1085 117.89 48.4973C117.25 48.066 116.395 48.1488 115.849 48.6939L113.614 50.9275C113.137 51.3762 112.53 51.6613 111.88 51.7405C111.23 51.8205 110.572 51.6908 110.001 51.3704C107.808 50.2298 105.521 49.28 103.166 48.5304C102.537 48.3533 101.982 47.9803 101.579 47.4655C101.177 46.9506 100.948 46.3213 100.928 45.6681V42.5257C100.928 41.7537 100.382 41.0905 99.6241 40.9429C93.2696 39.6857 86.7301 39.6857 80.376 40.9429C79.6185 41.0906 79.0719 41.7537 79.0719 42.5257V45.6681C79.0518 46.3213 78.8235 46.9513 78.421 47.4655C78.0185 47.9803 77.4626 48.3533 76.834 48.5304C74.4795 49.2801 72.1932 50.2291 70.0008 51.3689C69.4305 51.6908 68.7716 51.8219 68.1207 51.7426C67.4705 51.6634 66.8628 51.3776 66.3861 50.9275L64.1511 48.6938C63.606 48.1473 62.7491 48.0645 62.1098 48.4973C56.7339 52.1085 52.1119 56.7307 48.5008 62.1068C48.0695 62.7469 48.1523 63.6024 48.6973 64.1482L50.9309 66.3833C51.3802 66.86 51.6654 67.4677 51.7446 68.1173C51.8245 68.7675 51.6942 69.4256 51.3738 69.9966C50.2332 72.1893 49.2834 74.4763 48.5339 76.8316C48.3568 77.4602 47.9838 78.0161 47.469 78.4187C46.9541 78.8212 46.3248 79.0495 45.6717 79.0696H42.5294C41.7575 79.0696 41.0943 79.6161 40.9467 80.3737C39.6844 86.7284 39.6844 93.2681 40.9467 99.6225C41.0943 100.38 41.7575 100.927 42.5294 100.927H45.6717C46.3248 100.947 46.9548 101.175 47.469 101.578C47.9838 101.98 48.3568 102.536 48.5339 103.165C49.2835 105.519 50.2325 107.806 51.3723 109.998C51.6934 110.569 51.8238 111.227 51.7445 111.877C51.6653 112.528 51.3802 113.136 50.9309 113.613L48.6973 115.848C48.1522 116.394 48.0694 117.249 48.5007 117.889C52.1118 123.266 56.7338 127.888 62.1097 131.499C62.7491 131.933 63.6067 131.85 64.151 131.302L66.3861 129.069C66.8628 128.619 67.4698 128.333 68.12 128.254C68.7702 128.174 69.4283 128.305 69.9993 128.626C72.1919 129.766 74.4788 130.716 76.834 131.466C77.4626 131.643 78.0185 132.016 78.421 132.531C78.8235 133.046 79.0518 133.675 79.0719 134.328V137.471C79.0719 138.242 79.6184 138.906 80.3759 139.053C86.7305 140.316 93.2699 140.316 99.6241 139.053C100.382 138.906 100.928 138.242 100.928 137.471V134.328C100.948 133.675 101.176 133.045 101.579 132.531C101.982 132.016 102.537 131.643 103.166 131.466C105.52 130.716 107.807 129.766 109.999 128.627C110.57 128.306 111.228 128.176 111.879 128.255C112.529 128.334 113.137 128.619 113.614 129.069L115.849 131.302C116.394 131.848 117.251 131.931 117.89 131.499C123.266 127.888 127.888 123.266 131.499 117.889C131.931 117.249 131.848 116.394 131.303 115.848L129.069 113.613C128.62 113.136 128.335 112.528 128.255 111.879C128.175 111.229 128.306 110.571 128.626 110C129.767 107.807 130.717 105.52 131.466 103.165C131.643 102.536 132.016 101.98 132.531 101.578C133.045 101.175 133.675 100.947 134.328 100.927H137.471C138.243 100.927 138.906 100.38 139.053 99.6225C140.316 93.2678 140.316 86.7281 139.053 80.3737C138.906 79.6162 138.243 79.0696 137.471 79.0696H137.471ZM136.124 97.7009H134.328C132.99 97.7189 131.692 98.164 130.624 98.9712C129.556 99.7784 128.775 100.906 128.391 102.188C127.698 104.367 126.82 106.483 125.764 108.512C125.125 109.69 124.88 111.043 125.064 112.371C125.248 113.699 125.853 114.934 126.788 115.895L128.068 117.177L128.069 117.176C125.066 121.385 121.385 125.066 117.177 128.069L115.894 126.789L115.895 126.788C114.934 125.851 113.7 125.246 112.371 125.062C111.042 124.878 109.689 125.125 108.51 125.766C106.482 126.82 104.368 127.699 102.19 128.392C100.907 128.775 99.7795 129.557 98.9723 130.624C98.1652 131.692 97.7201 132.99 97.7022 134.329V136.125C92.6035 136.987 87.3961 136.987 82.2974 136.125V134.329C82.2794 132.99 81.8344 131.692 81.0272 130.624C80.22 129.557 79.0924 128.775 77.81 128.392C75.6312 127.698 73.5156 126.82 71.4872 125.764C70.3085 125.125 68.9563 124.879 67.6276 125.063C66.2991 125.247 65.065 125.852 64.1045 126.788L62.822 128.068L62.8228 128.069C58.614 125.066 54.9331 121.385 51.9305 117.176L53.2107 115.894L53.2114 115.895C54.1468 114.933 54.7509 113.698 54.9353 112.37C55.1189 111.041 54.8733 109.689 54.2332 108.509C53.179 106.482 52.3007 104.367 51.6079 102.189C51.2249 100.906 50.4429 99.7785 49.3751 98.9713C48.3072 98.1641 47.0097 97.7191 45.6711 97.7011H43.8753C43.0083 92.6022 43.0083 87.3946 43.8753 82.2957H45.6711C47.0097 82.2777 48.3072 81.8327 49.3751 81.0255C50.4429 80.2183 51.2249 79.0907 51.6079 77.8082C52.3013 75.6293 53.1798 73.5136 54.2354 71.4851C54.8741 70.3064 55.1197 68.9541 54.9353 67.6254C54.751 66.2976 54.1469 65.0627 53.2115 64.1021L51.9312 62.8196L51.9305 62.8203C54.9331 58.6115 58.6141 54.9304 62.8228 51.9276L64.1052 53.2079L64.1045 53.2087C65.065 54.1455 66.2999 54.7497 67.6292 54.934C68.9576 55.1176 70.3107 54.8713 71.4893 54.2305C73.517 53.1763 75.6318 52.2978 77.8099 51.6051C79.0923 51.222 80.2199 50.44 81.0271 49.3722C81.8343 48.3043 82.2793 47.0067 82.2973 45.668V43.8721C87.3959 43.0095 92.6034 43.0095 97.702 43.8721V45.668C97.72 47.0067 98.165 48.3043 98.9722 49.3722C99.7794 50.4401 100.907 51.222 102.189 51.6051C104.368 52.2985 106.484 53.177 108.512 54.2327C109.691 54.8707 111.043 55.1162 112.371 54.9319C113.7 54.7475 114.934 54.1441 115.895 53.2087L117.177 51.9284L117.177 51.9277C121.385 54.9304 125.066 58.6115 128.069 62.8204L126.789 64.1029L126.788 64.1021C125.853 65.0634 125.248 66.2984 125.064 67.6269C124.881 68.9555 125.126 70.3078 125.766 71.4872C126.82 73.5149 127.699 75.6299 128.391 77.8081C128.775 79.0905 129.557 80.2181 130.624 81.0254C131.692 81.8326 132.99 82.2776 134.328 82.2956H136.124C136.991 87.3945 136.991 92.6021 136.124 97.7009Z" fill="white"/>
<path d="M90.0004 54.5135C80.5893 54.5135 71.5634 58.2522 64.9089 64.9072C58.2541 71.5623 54.5156 80.5876 54.5156 89.9997C54.5156 99.4118 58.2541 108.437 64.9089 115.092C71.5637 121.747 80.5887 125.486 90.0004 125.486C99.4122 125.486 108.438 121.747 115.092 115.092C121.747 108.437 125.485 99.4118 125.485 89.9997C125.474 80.5919 121.733 71.5721 115.081 64.9201C108.428 58.2673 99.4085 54.5257 90.0019 54.515L90.0004 54.5135ZM90.0004 122.259C81.4448 122.259 73.2397 118.86 67.191 112.81C61.1411 106.761 57.7424 98.5551 57.7424 89.9995C57.7424 81.4439 61.1411 73.2381 67.191 67.1892C73.2401 61.1391 81.4451 57.7403 90.0004 57.7403C98.5557 57.7403 106.761 61.1391 112.81 67.1892C118.86 73.2385 122.258 81.4439 122.258 89.9995C122.249 98.5526 118.848 106.752 112.8 112.801C106.752 118.849 98.553 122.25 89.9997 122.26L90.0004 122.259Z" fill="white"/>
<path d="M91.6133 83.5473H94.8391V86.7733H91.6133V83.5473Z" fill="white"/>
<path d="M94.8398 89.9991H98.0657V93.2251H94.8398V89.9991Z" fill="white"/>
</g>
<defs>
<clipPath id="clip0_1320_858">
<rect width="100" height="100" fill="white" transform="translate(40 40)"/>
</clipPath>
</defs>
</svg>
