<svg width="180" height="180" viewBox="0 0 180 180" fill="none" xmlns="http://www.w3.org/2000/svg">
<circle cx="90" cy="90" r="90" fill="#8800FF"/>
<path fill-rule="evenodd" clip-rule="evenodd" d="M64.44 42.2807C62.2225 42.2807 59.1247 44.8 59.1247 46.6017V133.398C59.1247 135.2 62.2225 137.719 64.44 137.719H117.88C120.098 137.719 123.196 135.2 123.196 133.398V46.6017C123.196 44.8 120.098 42.2807 117.88 42.2807H64.44ZM117.88 140H64.44C59.962 140 56.3202 137.038 56.3202 133.398V46.6017C56.3202 42.9617 59.962 40 64.44 40H117.88C122.358 40 126 42.9617 126 46.6017V133.398C126 137.038 122.358 140 117.88 140Z" fill="#F7F6FB"/>
<path fill-rule="evenodd" clip-rule="evenodd" d="M123.471 54.6398H57.8798C56.7463 54.6398 55.8301 54.0933 55.8301 53.4199C55.8301 52.7465 56.7463 52.1999 57.8798 52.1999H123.471C124.604 52.1999 125.521 52.7465 125.521 53.4199C125.521 54.0933 124.604 54.6398 123.471 54.6398Z" fill="#F7F6FB"/>
<path fill-rule="evenodd" clip-rule="evenodd" d="M123.471 119.524H59.1247C57.9912 119.524 57.0749 118.978 57.0749 118.304C57.0749 117.63 57.9912 117.084 59.1247 117.084H123.471C124.604 117.084 125.521 117.63 125.521 118.304C125.521 118.978 124.604 119.524 123.471 119.524Z" fill="#F7F6FB"/>
<path fill-rule="evenodd" clip-rule="evenodd" d="M98.9687 48.5414H88.8284C87.7069 48.5414 86.8004 47.9948 86.8004 47.3213C86.8004 46.6478 87.7069 46.1011 88.8284 46.1011H98.9687C100.09 46.1011 100.997 46.6478 100.997 47.3213C100.997 47.9948 100.09 48.5414 98.9687 48.5414Z" fill="#F7F6FB"/>
<path fill-rule="evenodd" clip-rule="evenodd" d="M82.5005 48.5414H80.7797C79.8281 48.5414 79.059 47.9948 79.059 47.3213C79.059 46.6478 79.8281 46.1011 80.7797 46.1011H82.5005C83.452 46.1011 84.2212 46.6478 84.2212 47.3213C84.2212 47.9948 83.452 48.5414 82.5005 48.5414Z" fill="#F7F6FB"/>
<path fill-rule="evenodd" clip-rule="evenodd" d="M56.0434 63.1815C54.9134 63.1815 54 62.316 54 61.2495V59.3176C54 58.2511 54.9134 57.3856 56.0434 57.3856C57.1734 57.3856 58.0868 58.2511 58.0868 59.3176V61.2495C58.0868 62.316 57.1734 63.1815 56.0434 63.1815Z" fill="#F7F6FB"/>
<path fill-rule="evenodd" clip-rule="evenodd" d="M56.0434 70.91C54.9134 70.91 54 70.0445 54 68.9781V67.0461C54 65.9797 54.9134 65.1141 56.0434 65.1141C57.1734 65.1141 58.0868 65.9797 58.0868 67.0461V68.9781C58.0868 70.0445 57.1734 70.91 56.0434 70.91Z" fill="#F7F6FB"/>
<path fill-rule="evenodd" clip-rule="evenodd" d="M56.0434 78.6363C54.9134 78.6363 54 77.7708 54 76.7043V74.7724C54 73.7059 54.9134 72.8404 56.0434 72.8404C57.1734 72.8404 58.0868 73.7059 58.0868 74.7724V76.7043C58.0868 77.7708 57.1734 78.6363 56.0434 78.6363Z" fill="#F7F6FB"/>
<path fill-rule="evenodd" clip-rule="evenodd" d="M90.6744 125.773C89.2509 125.773 88.0933 126.867 88.0933 128.213C88.0933 129.559 89.2509 130.653 90.6744 130.653C92.0979 130.653 93.2555 129.559 93.2555 128.213C93.2555 126.867 92.0979 125.773 90.6744 125.773ZM90.6744 133.093C87.8274 133.093 85.5122 130.904 85.5122 128.213C85.5122 125.521 87.8274 123.333 90.6744 123.333C93.5213 123.333 95.8366 125.521 95.8366 128.213C95.8366 130.904 93.5213 133.093 90.6744 133.093Z" fill="#F7F6FB"/>
<path d="M111.449 95.4996L101.112 85.6919L104.791 82.201C104.967 82.201 104.967 82.201 105.142 82.201C107.77 82.201 110.223 81.2036 112.15 79.375C114.778 76.8815 115.829 72.8919 114.427 69.5673L113.727 67.7387L108.471 72.7257L105.843 72.0608L105.492 70.066L105.317 69.401L110.573 64.414L108.646 63.7491C105.142 62.5855 100.937 63.4166 98.309 65.9101C96.3818 67.7387 95.3306 70.2322 95.3306 72.8919L91.6514 76.3828L80.6138 65.9101C80.4386 65.7439 80.2634 65.5777 79.913 65.5777L66.773 62.9179L69.5762 75.3854C69.5762 75.5517 69.7514 75.8841 69.9266 76.0504L80.9642 86.523L77.1098 90.1802C74.3066 90.0139 71.6786 91.0113 69.7514 92.8399C67.1234 95.3334 66.0722 99.323 67.4738 102.648L68.1746 104.476L73.4306 99.4892L76.2338 99.9879L76.409 100.819L76.7594 102.648L71.5034 107.635L73.4306 108.3C74.4818 108.632 75.7082 108.798 76.7594 108.798C79.3874 108.798 81.8402 107.801 83.7674 105.972C85.6946 104.144 86.7458 101.484 86.5706 98.9905L90.425 95.3334L102.689 106.97C103.915 108.133 105.667 108.965 107.595 108.965C109.522 108.965 111.099 108.3 112.5 106.97L113.376 106.139C114.603 104.975 115.479 103.313 115.479 101.484C115.479 99.6555 114.778 98.1594 113.376 96.8295L111.449 95.4996ZM105.142 97.9931L96.557 89.8477L99.185 87.3542L107.77 95.4996L105.142 97.9931ZM100.061 67.7387C101.463 66.4088 103.215 65.7439 105.142 65.7439H105.317L102.514 68.5699L103.565 74.2218L107.595 74.8867L108.821 75.053L109.522 75.2192L112.5 72.3932C112.5 74.2218 111.799 76.2166 110.398 77.5465C108.821 79.0425 106.719 79.7075 104.441 79.5412C102.864 79.375 101.287 78.7101 100.061 77.5465C98.8346 76.3828 98.1338 74.8867 97.9586 73.3906C97.7834 71.3958 98.4842 69.2348 100.061 67.7387ZM95.681 75.2192C95.681 75.053 95.5058 74.8867 95.5058 74.7205C95.5058 74.8867 95.5058 75.053 95.681 75.2192ZM89.7242 78.3776L87.0962 80.8711L77.1098 71.3958L79.7378 68.9023L89.7242 78.3776ZM76.9346 67.9049L71.5034 73.0582L70.1018 66.5751L76.9346 67.9049ZM75.1826 73.0582L85.169 82.5335L82.541 85.027L72.5546 75.5517L75.1826 73.0582ZM95.8562 76.0504C96.3818 77.214 97.0826 78.3776 98.1338 79.375C99.185 80.3724 100.411 81.0373 101.638 81.536L85.8698 96.497V96.3308C85.8698 96.3308 85.8698 96.3308 85.8698 96.497C85.3442 95.3334 84.6434 94.1698 83.5922 93.1724C82.541 92.175 81.3146 91.51 79.913 91.0113H80.0882L95.8562 76.0504ZM79.2122 90.6789C78.8618 90.5126 78.5114 90.5126 78.161 90.5126C78.6866 90.5126 79.037 90.5126 79.2122 90.6789ZM77.285 90.3464C77.4602 90.3464 77.4602 90.3464 77.285 90.3464V90.3464ZM81.8402 104.642C80.4386 105.972 78.5114 106.637 76.409 106.637L79.3874 103.811L78.5114 99.323L78.3362 98.1594L77.1098 97.9931L73.0802 97.3282L72.3794 97.162L69.401 99.9879C69.401 98.1594 70.1018 96.1646 71.5034 94.8347C73.0802 93.3386 75.1826 92.6737 77.4602 92.8399C79.2122 93.0061 80.6138 93.6711 81.8402 94.8347C83.0666 95.9983 83.7674 97.4944 83.9426 98.9905C84.1178 101.152 83.417 103.146 81.8402 104.642ZM94.805 91.6763L103.39 99.8217L100.762 102.315L92.177 94.1698L94.805 91.6763ZM111.449 104.975L110.573 105.806C108.996 107.302 106.193 107.302 104.441 105.806L102.514 103.978L109.522 97.3282L111.449 99.1568C112.325 99.9879 112.675 100.985 112.675 101.983C112.675 103.146 112.325 104.144 111.449 104.975Z" fill="#F7F6FB"/>
</svg>
