<svg width="180" height="180" viewBox="0 0 180 180" fill="none" xmlns="http://www.w3.org/2000/svg">
<circle cx="90" cy="90" r="90" fill="#5F00B3"/>
<g clip-path="url(#clip0_1320_906)">
<path d="M79.2944 123.534C84.1851 123.542 89.033 122.633 93.5879 120.856L92.7003 118.584C90.4319 119.471 88.0795 120.127 85.6793 120.545C87.5713 119.211 89.3236 117.69 90.9107 116.006L89.1346 114.334C86.6543 116.975 83.7381 119.171 80.5139 120.826V97.5904C82.9394 97.6562 85.3514 97.9641 87.7158 98.5091L88.2644 96.1345C85.7206 95.5482 83.1236 95.2189 80.5139 95.153V85.4847H95.541V83.0474H80.5139V73.3814C86.4558 73.2331 92.2834 71.7216 97.5481 68.9654C98.8224 73.0823 99.5608 77.3452 99.745 81.651L102.182 81.5375C101.981 76.8478 101.15 72.2064 99.7141 67.7372C102.737 65.8973 105.496 63.652 107.91 61.0639C111.471 65.4435 113.977 70.5807 115.237 76.0814L117.615 75.5418C113.535 57.6745 97.6339 45.0016 79.2944 45C57.6274 45 40 62.615 40 84.2668C40 105.919 57.6274 123.534 79.2944 123.534ZM58.8651 67.6856C57.2756 72.6547 56.4309 77.8316 56.3586 83.0482H42.4613C42.7201 75.0174 45.6125 67.2953 50.693 61.0679C53.1074 63.6306 55.856 65.856 58.8651 67.6856ZM56.3586 85.4855C56.4309 90.7021 57.2756 95.879 58.8651 100.849C55.8553 102.678 53.1066 104.903 50.6922 107.466C45.6117 101.238 42.7193 93.5155 42.4605 85.4855H56.3586ZM52.3007 109.314C54.4897 106.959 56.9787 104.901 59.7035 103.193C62.5173 110.428 67.019 116.396 72.903 120.542C64.9937 119.144 57.7592 115.201 52.3007 109.314ZM78.0748 120.821C70.6291 117.002 65.0389 110.388 61.8433 101.952C66.8452 99.2684 72.4005 97.7784 78.0748 97.5975V120.821ZM78.0748 95.1578C72.1313 95.3347 66.3061 96.8604 61.039 99.6191C59.6265 95.038 58.8731 90.2792 58.8008 85.4855H78.0748V95.1578ZM58.8008 83.0482C58.8731 78.2553 59.6265 73.4973 61.039 68.9162C66.3053 71.6748 72.1313 73.2005 78.0748 73.3767V83.0482H58.8008ZM78.0748 70.937C72.4005 70.7569 66.8452 69.2661 61.844 66.5812C65.0397 58.1474 70.6299 51.5344 78.0748 47.715V70.937ZM80.5139 70.9441V47.7142C86.1525 50.6006 90.7074 55.0238 94.0555 60.8822C95.1028 62.7237 96.0015 64.6453 96.7447 66.6296C91.7451 69.3137 86.1875 70.791 80.5139 70.9441ZM106.303 59.2137C104.114 61.5939 101.617 63.671 98.8788 65.3911C98.1214 63.4203 97.2171 61.509 96.1738 59.6731C93.572 55.0619 89.9897 51.0766 85.6793 47.9982C93.5974 49.3796 100.843 53.3196 106.303 59.2137ZM72.9062 47.9927C67.0222 52.1358 62.5205 58.1069 59.7051 65.3419C56.9795 63.6337 54.4904 61.5757 52.3007 59.2209C57.7607 53.3323 64.9968 49.3899 72.9062 47.9927Z" fill="#F7F6FB"/>
<path d="M137.789 86.3988C129.281 82.6421 121.221 77.942 113.763 72.3866C113.33 72.0613 112.733 72.0613 112.3 72.3866C104.842 77.942 96.7827 82.6421 88.2747 86.3988C86.9282 87.0002 86.062 88.3363 86.0636 89.8096V103.162C86.0636 112.654 90.6113 120.996 99.2138 127.289C105.638 131.987 111.977 133.873 112.243 133.951C112.463 134.015 112.696 134.016 112.916 133.954C113.191 133.877 119.743 131.995 126.386 127.302C135.293 121.009 140 112.662 140 103.162V89.8096C140.001 88.3363 139.135 87.0002 137.789 86.3988ZM137.561 103.162C137.561 110.15 134.887 116.288 129.603 121.475V120.394C129.603 119.721 129.057 119.175 128.384 119.175C127.71 119.175 127.164 119.721 127.164 120.394V121.968C127.165 122.439 127.437 122.868 127.864 123.069C126.981 123.825 126.038 124.559 125.036 125.271C121.213 127.943 117.021 130.044 112.591 131.505C108.327 130.048 104.304 127.964 100.655 125.322C99.6973 124.622 98.7962 123.9 97.9514 123.155C98.5056 123.028 98.8986 122.536 98.8986 121.968V120.394C98.8986 119.721 98.3532 119.175 97.6791 119.175C97.0058 119.175 96.4596 119.721 96.4596 120.394V121.762C91.175 116.518 88.5026 110.282 88.5026 103.162V89.8096C88.5002 89.2987 88.7995 88.8353 89.2656 88.6259C97.6616 84.9167 105.631 80.3079 113.031 74.8803C120.432 80.3079 128.401 84.9175 136.798 88.6259C137.263 88.8361 137.563 89.2995 137.561 89.8096V103.162Z" fill="#F7F6FB"/>
<path d="M113.032 119.175C112.359 119.175 111.812 119.721 111.812 120.394V121.968C111.812 122.641 112.359 123.186 113.032 123.186C113.705 123.186 114.251 122.641 114.251 121.968V120.394C114.251 119.721 113.705 119.175 113.032 119.175Z" fill="#F7F6FB"/>
<path d="M118.149 119.175C117.476 119.175 116.929 119.721 116.929 120.394V121.968C116.929 122.641 117.476 123.186 118.149 123.186C118.823 123.186 119.369 122.641 119.369 121.968V120.394C119.369 119.721 118.823 119.175 118.149 119.175Z" fill="#F7F6FB"/>
<path d="M123.267 119.175C122.593 119.175 122.047 119.721 122.047 120.394V121.968C122.047 122.641 122.593 123.186 123.267 123.186C123.94 123.186 124.486 122.641 124.486 121.968V120.394C124.486 119.721 123.94 119.175 123.267 119.175Z" fill="#F7F6FB"/>
<path d="M107.914 119.175C107.241 119.175 106.695 119.721 106.695 120.394V121.968C106.695 122.641 107.241 123.186 107.914 123.186C108.588 123.186 109.134 122.641 109.134 121.968V120.394C109.134 119.721 108.588 119.175 107.914 119.175Z" fill="#F7F6FB"/>
<path d="M102.798 119.175C102.124 119.175 101.578 119.721 101.578 120.394V121.968C101.578 122.641 102.124 123.186 102.798 123.186C103.471 123.186 104.017 122.641 104.017 121.968V120.394C104.017 119.721 103.471 119.175 102.798 119.175Z" fill="#F7F6FB"/>
<path d="M123.846 95.633C123.257 95.0444 122.304 95.0444 121.716 95.633L110.125 107.251L103.991 101.103C103.401 100.522 102.454 100.526 101.87 101.111C101.286 101.698 101.282 102.646 101.861 103.238L109.059 110.453C109.647 111.042 110.601 111.042 111.189 110.453L123.845 97.7673C124.433 97.1787 124.434 96.2226 123.846 95.633Z" fill="#F7F6FB"/>
<path d="M79.2944 123.534C84.1851 123.542 89.033 122.633 93.5879 120.856L92.7003 118.584C90.4319 119.471 88.0795 120.127 85.6793 120.545C87.5713 119.211 89.3236 117.69 90.9107 116.006L89.1346 114.334C86.6543 116.975 83.7381 119.171 80.5139 120.826V97.5904C82.9394 97.6562 85.3514 97.9641 87.7158 98.5091L88.2644 96.1345C85.7206 95.5482 83.1236 95.2189 80.5139 95.153V85.4847H95.541V83.0474H80.5139V73.3814C86.4558 73.2331 92.2834 71.7216 97.5481 68.9654C98.8224 73.0823 99.5608 77.3452 99.745 81.651L102.182 81.5375C101.981 76.8478 101.15 72.2064 99.7141 67.7372C102.737 65.8973 105.496 63.652 107.91 61.0639C111.471 65.4435 113.977 70.5807 115.237 76.0814L117.615 75.5418C113.535 57.6745 97.6339 45.0016 79.2944 45C57.6274 45 40 62.615 40 84.2668C40 105.919 57.6274 123.534 79.2944 123.534ZM58.8651 67.6856C57.2756 72.6547 56.4309 77.8316 56.3586 83.0482H42.4613C42.7201 75.0174 45.6125 67.2953 50.693 61.0679C53.1074 63.6306 55.856 65.856 58.8651 67.6856ZM56.3586 85.4855C56.4309 90.7021 57.2756 95.879 58.8651 100.849C55.8553 102.678 53.1066 104.903 50.6922 107.466C45.6117 101.238 42.7193 93.5155 42.4605 85.4855H56.3586ZM52.3007 109.314C54.4897 106.959 56.9787 104.901 59.7035 103.193C62.5173 110.428 67.019 116.396 72.903 120.542C64.9937 119.144 57.7592 115.201 52.3007 109.314ZM78.0748 120.821C70.6291 117.002 65.0389 110.388 61.8433 101.952C66.8452 99.2684 72.4005 97.7784 78.0748 97.5975V120.821ZM78.0748 95.1578C72.1313 95.3347 66.3061 96.8604 61.039 99.6191C59.6265 95.038 58.8731 90.2792 58.8008 85.4855H78.0748V95.1578ZM58.8008 83.0482C58.8731 78.2553 59.6265 73.4973 61.039 68.9162C66.3053 71.6748 72.1313 73.2005 78.0748 73.3767V83.0482H58.8008ZM78.0748 70.937C72.4005 70.7569 66.8452 69.2661 61.844 66.5812C65.0397 58.1474 70.6299 51.5344 78.0748 47.715V70.937ZM80.5139 70.9441V47.7142C86.1525 50.6006 90.7074 55.0238 94.0555 60.8822C95.1028 62.7237 96.0015 64.6453 96.7447 66.6296C91.7451 69.3137 86.1875 70.791 80.5139 70.9441ZM106.303 59.2137C104.114 61.5939 101.617 63.671 98.8788 65.3911C98.1214 63.4203 97.2171 61.509 96.1738 59.6731C93.572 55.0619 89.9897 51.0766 85.6793 47.9982C93.5974 49.3796 100.843 53.3196 106.303 59.2137ZM72.9062 47.9927C67.0222 52.1358 62.5205 58.1069 59.7051 65.3419C56.9795 63.6337 54.4904 61.5757 52.3007 59.2209C57.7607 53.3323 64.9968 49.3899 72.9062 47.9927Z" stroke="white" stroke-width="0.3"/>
<path d="M137.789 86.3988C129.281 82.6421 121.221 77.942 113.763 72.3866C113.33 72.0613 112.733 72.0613 112.3 72.3866C104.842 77.942 96.7827 82.6421 88.2747 86.3988C86.9282 87.0002 86.062 88.3363 86.0636 89.8096V103.162C86.0636 112.654 90.6113 120.996 99.2138 127.289C105.638 131.987 111.977 133.873 112.243 133.951C112.463 134.015 112.696 134.016 112.916 133.954C113.191 133.877 119.743 131.995 126.386 127.302C135.293 121.009 140 112.662 140 103.162V89.8096C140.001 88.3363 139.135 87.0002 137.789 86.3988ZM137.561 103.162C137.561 110.15 134.887 116.288 129.603 121.475V120.394C129.603 119.721 129.057 119.175 128.384 119.175C127.71 119.175 127.164 119.721 127.164 120.394V121.968C127.165 122.439 127.437 122.868 127.864 123.069C126.981 123.825 126.038 124.559 125.036 125.271C121.213 127.943 117.021 130.044 112.591 131.505C108.327 130.048 104.304 127.964 100.655 125.322C99.6973 124.622 98.7962 123.9 97.9514 123.155C98.5056 123.028 98.8986 122.536 98.8986 121.968V120.394C98.8986 119.721 98.3532 119.175 97.6791 119.175C97.0058 119.175 96.4596 119.721 96.4596 120.394V121.762C91.175 116.518 88.5026 110.282 88.5026 103.162V89.8096C88.5002 89.2987 88.7995 88.8353 89.2656 88.6259C97.6616 84.9167 105.631 80.3079 113.031 74.8803C120.432 80.3079 128.401 84.9175 136.798 88.6259C137.263 88.8361 137.563 89.2995 137.561 89.8096V103.162Z" stroke="white" stroke-width="0.3"/>
<path d="M113.032 119.175C112.359 119.175 111.812 119.721 111.812 120.394V121.968C111.812 122.641 112.359 123.186 113.032 123.186C113.705 123.186 114.251 122.641 114.251 121.968V120.394C114.251 119.721 113.705 119.175 113.032 119.175Z" stroke="white" stroke-width="0.3"/>
<path d="M118.149 119.175C117.476 119.175 116.929 119.721 116.929 120.394V121.968C116.929 122.641 117.476 123.186 118.149 123.186C118.823 123.186 119.369 122.641 119.369 121.968V120.394C119.369 119.721 118.823 119.175 118.149 119.175Z" stroke="white" stroke-width="0.3"/>
<path d="M123.267 119.175C122.593 119.175 122.047 119.721 122.047 120.394V121.968C122.047 122.641 122.593 123.186 123.267 123.186C123.94 123.186 124.486 122.641 124.486 121.968V120.394C124.486 119.721 123.94 119.175 123.267 119.175Z" stroke="white" stroke-width="0.3"/>
<path d="M107.914 119.175C107.241 119.175 106.695 119.721 106.695 120.394V121.968C106.695 122.641 107.241 123.186 107.914 123.186C108.588 123.186 109.134 122.641 109.134 121.968V120.394C109.134 119.721 108.588 119.175 107.914 119.175Z" stroke="white" stroke-width="0.3"/>
<path d="M102.798 119.175C102.124 119.175 101.578 119.721 101.578 120.394V121.968C101.578 122.641 102.124 123.186 102.798 123.186C103.471 123.186 104.017 122.641 104.017 121.968V120.394C104.017 119.721 103.471 119.175 102.798 119.175Z" stroke="white" stroke-width="0.3"/>
<path d="M123.846 95.633C123.257 95.0444 122.304 95.0444 121.716 95.633L110.125 107.251L103.991 101.103C103.401 100.522 102.454 100.526 101.87 101.111C101.286 101.698 101.282 102.646 101.861 103.238L109.059 110.453C109.647 111.042 110.601 111.042 111.189 110.453L123.845 97.7673C124.433 97.1787 124.434 96.2226 123.846 95.633Z" stroke="white" stroke-width="0.3"/>
</g>
<defs>
<clipPath id="clip0_1320_906">
<rect width="100" height="100" fill="white" transform="translate(40 40)"/>
</clipPath>
</defs>
</svg>
