<svg width="180" height="180" viewBox="0 0 180 180" fill="none" xmlns="http://www.w3.org/2000/svg">
<circle cx="90" cy="90" r="90" fill="#5F00B3"/>
<path d="M132.672 52H47.1756C43.2061 52 40 55.0464 40 58.9632V127H140V58.8182C140 55.0464 136.641 52 132.672 52ZM47.1756 54.176H132.672C135.42 54.176 137.71 56.352 137.71 58.9632V63.3153H42.2901V58.9632C42.2901 56.207 44.4275 54.176 47.1756 54.176ZM42.2901 124.679V65.3462H137.71V124.679H42.2901Z" fill="#F7F6FB"/>
<path d="M117.865 57.657H115.575V59.8327H117.865V57.657Z" fill="#F7F6FB"/>
<path d="M123.664 57.657H121.373V59.8327H123.664V57.657Z" fill="#F7F6FB"/>
<path d="M129.466 57.657H127.176V59.8327H129.466V57.657Z" fill="#F7F6FB"/>
<path d="M108.397 57.657H49.6184V59.8327H108.397V57.657Z" fill="#F7F6FB"/>
<path d="M53.8926 83.6235V87.9756C53.8926 91.4572 50.8391 94.3586 47.175 94.3586H46.5643V96.5346H47.175C50.8391 96.5346 53.8926 99.436 53.8926 102.918V107.27C53.8926 110.897 57.0987 113.943 60.9155 113.943H63.5109V111.767H60.9155C58.3201 111.767 56.1827 109.736 56.1827 107.27V102.628C56.03 99.5811 54.1979 96.9699 51.6025 95.5192C54.1979 94.0685 56.03 91.4572 56.1827 88.4108V83.7685C56.1827 81.3024 58.3201 79.2714 60.9155 79.2714H63.5109V77.0954H60.9155C57.0987 76.9503 53.8926 79.9967 53.8926 83.6235Z" fill="#F7F6FB"/>
<path d="M125.955 87.9752V83.6232C125.955 79.9966 122.749 76.9502 118.932 76.9502H116.336V79.1262H118.932C121.527 79.1262 123.665 81.1571 123.665 83.6232V88.2654C123.817 91.3118 125.649 93.923 128.245 95.3736C125.649 96.8243 123.817 99.4355 123.665 102.482V107.124C123.665 109.59 121.527 111.621 118.932 111.621H116.336V113.797H118.932C122.749 113.797 125.955 110.751 125.955 107.124V102.772C125.955 99.2905 129.008 96.3891 132.672 96.3891H133.283V94.2131H132.672C129.008 94.3582 125.955 91.4568 125.955 87.9752Z" fill="#F7F6FB"/>
<path d="M95.3111 91.8378L93.6926 90.3002L92.074 91.8378L93.6926 93.3754L95.3111 91.8378Z" fill="#F7F6FB"/>
<path d="M91.7165 95.3262L90.098 93.7883L88.4796 95.3262L90.098 96.8641L91.7165 95.3262Z" fill="#F7F6FB"/>
<path d="M88.115 98.6094L86.4965 97.0714L84.8781 98.6094L86.4965 100.147L88.115 98.6094Z" fill="#F7F6FB"/>
<path d="M107.789 103.5L98.7814 94.9407L101.987 91.8943C102.14 91.8943 102.14 91.8943 102.293 91.8943C104.583 91.8943 106.72 91.0239 108.4 89.4281C110.69 87.2521 111.606 83.7705 110.384 80.8692L109.774 79.2735L105.194 83.6255L102.904 83.0452L102.598 81.3044L102.446 80.7241L107.026 76.3721L105.346 75.7919C102.293 74.7764 98.6287 75.5017 96.3386 77.6777C94.6592 79.2735 93.7432 81.4495 93.7432 83.7705L90.5371 86.8169L80.9188 77.6777C80.7661 77.5327 80.6134 77.3876 80.3081 77.3876L68.8577 75.0665L71.3004 85.9465C71.3004 86.0916 71.4531 86.3817 71.6058 86.5268L81.2241 95.666L77.8653 98.8574C75.4226 98.7124 73.1325 99.5828 71.4531 101.179C69.163 103.355 68.247 106.836 69.4683 109.737L70.079 111.333L74.6592 106.981L77.1019 107.416L77.2546 108.142L77.56 109.737L72.9798 114.089L74.6592 114.67C75.5752 114.96 76.6439 115.105 77.56 115.105C79.85 115.105 81.9875 114.235 83.6668 112.639C85.3462 111.043 86.2623 108.722 86.1096 106.546L89.4684 103.355L100.155 113.509C101.224 114.525 102.751 115.25 104.43 115.25C106.11 115.25 107.484 114.67 108.705 113.509L109.468 112.784C110.537 111.768 111.3 110.318 111.3 108.722C111.3 107.126 110.69 105.821 109.468 104.66L107.789 103.5ZM102.293 105.676L94.8119 98.5673L97.102 96.3913L104.583 103.5L102.293 105.676ZM97.8654 79.2735C99.0867 78.1129 100.613 77.5327 102.293 77.5327H102.446L100.003 79.9988L100.919 84.9311L104.43 85.5113L105.499 85.6564L106.11 85.8015L108.705 83.3353C108.705 84.9311 108.094 86.6719 106.873 87.8324C105.499 89.138 103.667 89.7183 101.682 89.5732C100.308 89.4281 98.9341 88.8479 97.8654 87.8324C96.7967 86.8169 96.186 85.5113 96.0333 84.2057C95.8806 82.4649 96.4913 80.5791 97.8654 79.2735ZM94.0485 85.8015C94.0485 85.6564 93.8959 85.5113 93.8959 85.3663C93.8959 85.5113 93.8959 85.6564 94.0485 85.8015ZM88.8577 88.5577L86.5676 90.7337L77.8653 82.4649L80.1554 80.2889L88.8577 88.5577ZM77.7126 79.4185L72.9798 83.9156L71.7584 78.258L77.7126 79.4185ZM76.1859 83.9156L84.8882 92.1844L82.5981 94.3604L73.8958 86.0916L76.1859 83.9156ZM94.2012 86.5268C94.6592 87.5423 95.2699 88.5577 96.186 89.4281C97.102 90.2985 98.1707 90.8788 99.2394 91.314L85.4989 104.37V104.225C85.4989 104.225 85.4989 104.225 85.4989 104.37C85.0409 103.355 84.4302 102.339 83.5142 101.469C82.5981 100.598 81.5294 100.018 80.3081 99.5828H80.4607L94.2012 86.5268ZM79.6974 99.2926C79.392 99.1476 79.0867 99.1476 78.7813 99.1476C79.2394 99.1476 79.5447 99.1476 79.6974 99.2926ZM78.018 99.0025C78.1707 99.0025 78.1707 99.0025 78.018 99.0025V99.0025ZM81.9875 111.478C80.7661 112.639 79.0867 113.219 77.2546 113.219L79.85 110.753L79.0867 106.836L78.934 105.821L77.8653 105.676L74.3538 105.095L73.7432 104.95L71.1477 107.416C71.1477 105.821 71.7584 104.08 72.9798 102.919C74.3539 101.614 76.1859 101.033 78.1707 101.179C79.6974 101.324 80.9187 101.904 81.9875 102.919C83.0562 103.935 83.6668 105.24 83.8195 106.546C83.9722 108.432 83.3615 110.173 81.9875 111.478ZM93.2852 100.163L100.766 107.271L98.476 109.447L90.9951 102.339L93.2852 100.163ZM107.789 111.768L107.026 112.494C105.652 113.799 103.209 113.799 101.682 112.494L100.003 110.898L106.11 105.095L107.789 106.691C108.552 107.416 108.858 108.287 108.858 109.157C108.858 110.173 108.552 111.043 107.789 111.768Z" fill="#F7F6FB"/>
</svg>
