<svg width="180" height="180" viewBox="0 0 180 180" fill="none" xmlns="http://www.w3.org/2000/svg">
<circle cx="90" cy="90" r="90" fill="#5F00B3"/>
<mask id="path-2-inside-1_1320_846" fill="white">
<path d="M95.7964 123.36C94.935 123.36 94.2362 124.02 94.2362 124.834V127.053H43.1204V63.8947H45.6396C46.5014 63.8947 47.1998 63.2351 47.1998 62.4212C47.1998 61.6074 46.5012 60.9478 45.6396 60.9478H41.5602C40.6983 60.9478 40 61.6074 40 62.4212V128.526C40 129.34 40.6986 130 41.5602 130H95.7964C96.6578 130 97.3566 129.34 97.3566 128.526V124.834C97.3566 124.02 96.6578 123.36 95.7964 123.36Z"/>
<path d="M106.346 107.704C105.484 107.704 104.786 108.363 104.786 109.177V117.367H53.6696V54.2098H78.1254C78.9873 54.2098 79.6856 53.55 79.6856 52.7363C79.6856 51.9225 78.987 51.2627 78.1254 51.2627H52.1092C51.2476 51.2627 50.549 51.9225 50.549 52.7363V118.841C50.549 119.655 51.2476 120.315 52.1092 120.315H106.346C107.207 120.315 107.906 119.655 107.906 118.841V109.177C107.906 108.363 107.207 107.704 106.346 107.704Z"/>
<path d="M106.347 65.9322C105.485 65.9322 104.787 66.592 104.787 67.4057V86.945C104.787 87.7588 105.485 88.4185 106.347 88.4185C107.208 88.4185 107.906 87.7588 107.906 86.945V67.4057C107.906 66.5922 107.208 65.9322 106.347 65.9322Z"/>
<path d="M60.709 112.082H67.9686C68.8302 112.082 69.5288 111.423 69.5288 110.609V95.4729C69.5288 94.6591 68.8302 93.9994 67.9686 93.9994H60.709C59.8471 93.9994 59.1488 94.6591 59.1488 95.4729V110.609C59.1488 111.422 59.8471 112.082 60.709 112.082ZM62.2692 96.9464H66.4081V109.135H62.2692V96.9464Z"/>
<path d="M76.3306 98.9359C75.4688 98.9359 74.7705 99.5954 74.7705 100.409V110.607C74.7705 111.421 75.469 112.081 76.3306 112.081H83.5898C84.4514 112.081 85.1499 111.421 85.1499 110.607V105.56C85.1499 104.747 84.4514 104.087 83.5898 104.087C82.7279 104.087 82.0296 104.747 82.0296 105.56V109.134H77.891V100.409C77.8907 99.5954 77.1924 98.9359 76.3306 98.9359Z"/>
<path d="M91.951 106.706C91.0896 106.706 90.3908 107.366 90.3908 108.18V110.608C90.3908 111.422 91.0896 112.082 91.951 112.082H99.2108C100.072 112.082 100.771 111.422 100.771 110.608V108.18C100.771 107.366 100.072 106.706 99.2108 106.706C98.3491 106.706 97.6506 107.366 97.6506 108.18V109.135H93.5115V108.18C93.5112 107.366 92.8124 106.706 91.951 106.706Z"/>
<path d="M96.7323 66.4199C96.1228 65.8446 95.1354 65.8444 94.526 66.4202L83.9669 76.3927C83.3575 76.9683 83.3575 77.901 83.9672 78.4766C84.5761 79.052 85.5642 79.0522 86.1736 78.4764L95.6292 69.546L97.4592 71.2743L85.8265 82.2607C85.2171 82.8363 85.2171 83.7695 85.8265 84.3448C86.1313 84.6324 86.5306 84.7764 86.93 84.7764C87.3292 84.7764 87.7285 84.6324 88.0333 84.3448L100.769 72.3165C101.062 72.04 101.226 71.6652 101.226 71.2743C101.226 70.8836 101.062 70.5086 100.769 70.2323L96.7323 66.4199Z"/>
<path d="M61.7253 86.7622C62.03 87.0495 62.4294 87.1935 62.8288 87.1935C63.2282 87.1935 63.6276 87.0495 63.9323 86.7622L68.0515 82.8718C68.661 82.2963 68.661 81.3633 68.0515 80.7877C67.4421 80.2124 66.4542 80.2124 65.8447 80.7877L62.8288 83.6362L60.9986 81.9078L68.0515 75.2473C68.661 74.6717 68.661 73.7388 68.0515 73.1635C67.4421 72.5881 66.4542 72.5881 65.8447 73.1635L57.6887 80.8658C57.0793 81.4414 57.0793 82.3743 57.6887 82.9499L61.7253 86.7622Z"/>
<path d="M138.249 106.307L129.155 97.7184C128.546 97.143 127.558 97.143 126.949 97.7184C126.34 98.2939 126.34 99.2269 126.949 99.8025L136.043 108.391C136.584 108.903 136.882 109.582 136.882 110.306C136.882 111.028 136.584 111.708 136.043 112.22C134.925 113.276 133.107 113.276 131.989 112.22L117.612 98.6413C124.106 93.606 128.257 85.9693 128.257 77.4331C128.257 62.3063 115.227 50 99.2105 50C83.1942 50 70.1641 62.3063 70.1641 77.4331C70.1641 92.5599 83.1942 104.866 99.2105 104.866C105.057 104.866 110.501 103.221 115.064 100.402L129.783 114.303C130.913 115.371 132.417 115.959 134.016 115.959C135.615 115.959 137.119 115.371 138.249 114.303C140.584 112.099 140.584 108.512 138.249 106.307ZM99.2105 101.919C84.9149 101.919 73.2847 90.9346 73.2847 77.4331C73.2847 63.9315 84.9151 52.9473 99.2105 52.9473C113.506 52.9473 125.136 63.9315 125.136 77.4331C125.136 90.9346 113.506 101.919 99.2105 101.919Z"/>
<path d="M99.2125 57.3094C87.4634 57.3094 77.9052 66.3369 77.9052 77.433C77.9052 88.5292 87.4634 97.5565 99.2125 97.5565C110.961 97.5565 120.519 88.5292 120.519 77.433C120.519 66.3369 110.961 57.3094 99.2125 57.3094ZM99.2125 94.609C89.1841 94.609 81.0255 86.9039 81.0255 77.4328C81.0255 67.9618 89.1841 60.2564 99.2125 60.2564C109.24 60.2564 117.399 67.9618 117.399 77.4328C117.399 86.9039 109.24 94.609 99.2125 94.609Z"/>
<path d="M59.9025 63.8092V61.6517C59.9025 60.8379 59.204 60.1781 58.3423 60.1781C57.4804 60.1781 56.782 60.8379 56.782 61.6517V63.8092C56.782 64.6232 57.4806 65.2828 58.3423 65.2828C59.204 65.283 59.9025 64.6234 59.9025 63.8092Z"/>
<path d="M64.9913 63.8092V59.19C64.9913 58.3762 64.2929 57.7165 63.4314 57.7165C62.57 57.7165 61.8715 58.3762 61.8715 59.19V63.8092C61.8715 64.6232 62.57 65.2827 63.4314 65.2827C64.2929 65.2829 64.9913 64.6234 64.9913 63.8092Z"/>
<path d="M70.0811 63.808V63.0565C70.0811 62.2428 69.3826 61.583 68.5211 61.583C67.6595 61.583 66.961 62.2428 66.961 63.0565V63.808C66.961 64.622 67.6595 65.2815 68.5211 65.2815C69.3826 65.2817 70.0811 64.6222 70.0811 63.808Z"/>
</mask>
<path d="M95.7964 123.36C94.935 123.36 94.2362 124.02 94.2362 124.834V127.053H43.1204V63.8947H45.6396C46.5014 63.8947 47.1998 63.2351 47.1998 62.4212C47.1998 61.6074 46.5012 60.9478 45.6396 60.9478H41.5602C40.6983 60.9478 40 61.6074 40 62.4212V128.526C40 129.34 40.6986 130 41.5602 130H95.7964C96.6578 130 97.3566 129.34 97.3566 128.526V124.834C97.3566 124.02 96.6578 123.36 95.7964 123.36Z" fill="#F7F6FB"/>
<path d="M106.346 107.704C105.484 107.704 104.786 108.363 104.786 109.177V117.367H53.6696V54.2098H78.1254C78.9873 54.2098 79.6856 53.55 79.6856 52.7363C79.6856 51.9225 78.987 51.2627 78.1254 51.2627H52.1092C51.2476 51.2627 50.549 51.9225 50.549 52.7363V118.841C50.549 119.655 51.2476 120.315 52.1092 120.315H106.346C107.207 120.315 107.906 119.655 107.906 118.841V109.177C107.906 108.363 107.207 107.704 106.346 107.704Z" fill="#F7F6FB"/>
<path d="M106.347 65.9322C105.485 65.9322 104.787 66.592 104.787 67.4057V86.945C104.787 87.7588 105.485 88.4185 106.347 88.4185C107.208 88.4185 107.906 87.7588 107.906 86.945V67.4057C107.906 66.5922 107.208 65.9322 106.347 65.9322Z" fill="#F7F6FB"/>
<path d="M60.709 112.082H67.9686C68.8302 112.082 69.5288 111.423 69.5288 110.609V95.4729C69.5288 94.6591 68.8302 93.9994 67.9686 93.9994H60.709C59.8471 93.9994 59.1488 94.6591 59.1488 95.4729V110.609C59.1488 111.422 59.8471 112.082 60.709 112.082ZM62.2692 96.9464H66.4081V109.135H62.2692V96.9464Z" fill="#F7F6FB"/>
<path d="M76.3306 98.9359C75.4688 98.9359 74.7705 99.5954 74.7705 100.409V110.607C74.7705 111.421 75.469 112.081 76.3306 112.081H83.5898C84.4514 112.081 85.1499 111.421 85.1499 110.607V105.56C85.1499 104.747 84.4514 104.087 83.5898 104.087C82.7279 104.087 82.0296 104.747 82.0296 105.56V109.134H77.891V100.409C77.8907 99.5954 77.1924 98.9359 76.3306 98.9359Z" fill="#F7F6FB"/>
<path d="M91.951 106.706C91.0896 106.706 90.3908 107.366 90.3908 108.18V110.608C90.3908 111.422 91.0896 112.082 91.951 112.082H99.2108C100.072 112.082 100.771 111.422 100.771 110.608V108.18C100.771 107.366 100.072 106.706 99.2108 106.706C98.3491 106.706 97.6506 107.366 97.6506 108.18V109.135H93.5115V108.18C93.5112 107.366 92.8124 106.706 91.951 106.706Z" fill="#F7F6FB"/>
<path d="M96.7323 66.4199C96.1228 65.8446 95.1354 65.8444 94.526 66.4202L83.9669 76.3927C83.3575 76.9683 83.3575 77.901 83.9672 78.4766C84.5761 79.052 85.5642 79.0522 86.1736 78.4764L95.6292 69.546L97.4592 71.2743L85.8265 82.2607C85.2171 82.8363 85.2171 83.7695 85.8265 84.3448C86.1313 84.6324 86.5306 84.7764 86.93 84.7764C87.3292 84.7764 87.7285 84.6324 88.0333 84.3448L100.769 72.3165C101.062 72.04 101.226 71.6652 101.226 71.2743C101.226 70.8836 101.062 70.5086 100.769 70.2323L96.7323 66.4199Z" fill="#F7F6FB"/>
<path d="M61.7253 86.7622C62.03 87.0495 62.4294 87.1935 62.8288 87.1935C63.2282 87.1935 63.6276 87.0495 63.9323 86.7622L68.0515 82.8718C68.661 82.2963 68.661 81.3633 68.0515 80.7877C67.4421 80.2124 66.4542 80.2124 65.8447 80.7877L62.8288 83.6362L60.9986 81.9078L68.0515 75.2473C68.661 74.6717 68.661 73.7388 68.0515 73.1635C67.4421 72.5881 66.4542 72.5881 65.8447 73.1635L57.6887 80.8658C57.0793 81.4414 57.0793 82.3743 57.6887 82.9499L61.7253 86.7622Z" fill="#F7F6FB"/>
<path d="M138.249 106.307L129.155 97.7184C128.546 97.143 127.558 97.143 126.949 97.7184C126.34 98.2939 126.34 99.2269 126.949 99.8025L136.043 108.391C136.584 108.903 136.882 109.582 136.882 110.306C136.882 111.028 136.584 111.708 136.043 112.22C134.925 113.276 133.107 113.276 131.989 112.22L117.612 98.6413C124.106 93.606 128.257 85.9693 128.257 77.4331C128.257 62.3063 115.227 50 99.2105 50C83.1942 50 70.1641 62.3063 70.1641 77.4331C70.1641 92.5599 83.1942 104.866 99.2105 104.866C105.057 104.866 110.501 103.221 115.064 100.402L129.783 114.303C130.913 115.371 132.417 115.959 134.016 115.959C135.615 115.959 137.119 115.371 138.249 114.303C140.584 112.099 140.584 108.512 138.249 106.307ZM99.2105 101.919C84.9149 101.919 73.2847 90.9346 73.2847 77.4331C73.2847 63.9315 84.9151 52.9473 99.2105 52.9473C113.506 52.9473 125.136 63.9315 125.136 77.4331C125.136 90.9346 113.506 101.919 99.2105 101.919Z" fill="#F7F6FB"/>
<path d="M99.2125 57.3094C87.4634 57.3094 77.9052 66.3369 77.9052 77.433C77.9052 88.5292 87.4634 97.5565 99.2125 97.5565C110.961 97.5565 120.519 88.5292 120.519 77.433C120.519 66.3369 110.961 57.3094 99.2125 57.3094ZM99.2125 94.609C89.1841 94.609 81.0255 86.9039 81.0255 77.4328C81.0255 67.9618 89.1841 60.2564 99.2125 60.2564C109.24 60.2564 117.399 67.9618 117.399 77.4328C117.399 86.9039 109.24 94.609 99.2125 94.609Z" fill="#F7F6FB"/>
<path d="M59.9025 63.8092V61.6517C59.9025 60.8379 59.204 60.1781 58.3423 60.1781C57.4804 60.1781 56.782 60.8379 56.782 61.6517V63.8092C56.782 64.6232 57.4806 65.2828 58.3423 65.2828C59.204 65.283 59.9025 64.6234 59.9025 63.8092Z" fill="#F7F6FB"/>
<path d="M64.9913 63.8092V59.19C64.9913 58.3762 64.2929 57.7165 63.4314 57.7165C62.57 57.7165 61.8715 58.3762 61.8715 59.19V63.8092C61.8715 64.6232 62.57 65.2827 63.4314 65.2827C64.2929 65.2829 64.9913 64.6234 64.9913 63.8092Z" fill="#F7F6FB"/>
<path d="M70.0811 63.808V63.0565C70.0811 62.2428 69.3826 61.583 68.5211 61.583C67.6595 61.583 66.961 62.2428 66.961 63.0565V63.808C66.961 64.622 67.6595 65.2815 68.5211 65.2815C69.3826 65.2817 70.0811 64.6222 70.0811 63.808Z" fill="#F7F6FB"/>
<path d="M95.7964 123.36C94.935 123.36 94.2362 124.02 94.2362 124.834V127.053H43.1204V63.8947H45.6396C46.5014 63.8947 47.1998 63.2351 47.1998 62.4212C47.1998 61.6074 46.5012 60.9478 45.6396 60.9478H41.5602C40.6983 60.9478 40 61.6074 40 62.4212V128.526C40 129.34 40.6986 130 41.5602 130H95.7964C96.6578 130 97.3566 129.34 97.3566 128.526V124.834C97.3566 124.02 96.6578 123.36 95.7964 123.36Z" stroke="white" stroke-width="2" mask="url(#path-2-inside-1_1320_846)"/>
<path d="M106.346 107.704C105.484 107.704 104.786 108.363 104.786 109.177V117.367H53.6696V54.2098H78.1254C78.9873 54.2098 79.6856 53.55 79.6856 52.7363C79.6856 51.9225 78.987 51.2627 78.1254 51.2627H52.1092C51.2476 51.2627 50.549 51.9225 50.549 52.7363V118.841C50.549 119.655 51.2476 120.315 52.1092 120.315H106.346C107.207 120.315 107.906 119.655 107.906 118.841V109.177C107.906 108.363 107.207 107.704 106.346 107.704Z" stroke="white" stroke-width="2" mask="url(#path-2-inside-1_1320_846)"/>
<path d="M106.347 65.9322C105.485 65.9322 104.787 66.592 104.787 67.4057V86.945C104.787 87.7588 105.485 88.4185 106.347 88.4185C107.208 88.4185 107.906 87.7588 107.906 86.945V67.4057C107.906 66.5922 107.208 65.9322 106.347 65.9322Z" stroke="white" stroke-width="2" mask="url(#path-2-inside-1_1320_846)"/>
<path d="M60.709 112.082H67.9686C68.8302 112.082 69.5288 111.423 69.5288 110.609V95.4729C69.5288 94.6591 68.8302 93.9994 67.9686 93.9994H60.709C59.8471 93.9994 59.1488 94.6591 59.1488 95.4729V110.609C59.1488 111.422 59.8471 112.082 60.709 112.082ZM62.2692 96.9464H66.4081V109.135H62.2692V96.9464Z" stroke="white" stroke-width="2" mask="url(#path-2-inside-1_1320_846)"/>
<path d="M76.3306 98.9359C75.4688 98.9359 74.7705 99.5954 74.7705 100.409V110.607C74.7705 111.421 75.469 112.081 76.3306 112.081H83.5898C84.4514 112.081 85.1499 111.421 85.1499 110.607V105.56C85.1499 104.747 84.4514 104.087 83.5898 104.087C82.7279 104.087 82.0296 104.747 82.0296 105.56V109.134H77.891V100.409C77.8907 99.5954 77.1924 98.9359 76.3306 98.9359Z" stroke="white" stroke-width="2" mask="url(#path-2-inside-1_1320_846)"/>
<path d="M91.951 106.706C91.0896 106.706 90.3908 107.366 90.3908 108.18V110.608C90.3908 111.422 91.0896 112.082 91.951 112.082H99.2108C100.072 112.082 100.771 111.422 100.771 110.608V108.18C100.771 107.366 100.072 106.706 99.2108 106.706C98.3491 106.706 97.6506 107.366 97.6506 108.18V109.135H93.5115V108.18C93.5112 107.366 92.8124 106.706 91.951 106.706Z" stroke="white" stroke-width="2" mask="url(#path-2-inside-1_1320_846)"/>
<path d="M96.7323 66.4199C96.1228 65.8446 95.1354 65.8444 94.526 66.4202L83.9669 76.3927C83.3575 76.9683 83.3575 77.901 83.9672 78.4766C84.5761 79.052 85.5642 79.0522 86.1736 78.4764L95.6292 69.546L97.4592 71.2743L85.8265 82.2607C85.2171 82.8363 85.2171 83.7695 85.8265 84.3448C86.1313 84.6324 86.5306 84.7764 86.93 84.7764C87.3292 84.7764 87.7285 84.6324 88.0333 84.3448L100.769 72.3165C101.062 72.04 101.226 71.6652 101.226 71.2743C101.226 70.8836 101.062 70.5086 100.769 70.2323L96.7323 66.4199Z" stroke="white" stroke-width="2" mask="url(#path-2-inside-1_1320_846)"/>
<path d="M61.7253 86.7622C62.03 87.0495 62.4294 87.1935 62.8288 87.1935C63.2282 87.1935 63.6276 87.0495 63.9323 86.7622L68.0515 82.8718C68.661 82.2963 68.661 81.3633 68.0515 80.7877C67.4421 80.2124 66.4542 80.2124 65.8447 80.7877L62.8288 83.6362L60.9986 81.9078L68.0515 75.2473C68.661 74.6717 68.661 73.7388 68.0515 73.1635C67.4421 72.5881 66.4542 72.5881 65.8447 73.1635L57.6887 80.8658C57.0793 81.4414 57.0793 82.3743 57.6887 82.9499L61.7253 86.7622Z" stroke="white" stroke-width="2" mask="url(#path-2-inside-1_1320_846)"/>
<path d="M138.249 106.307L129.155 97.7184C128.546 97.143 127.558 97.143 126.949 97.7184C126.34 98.2939 126.34 99.2269 126.949 99.8025L136.043 108.391C136.584 108.903 136.882 109.582 136.882 110.306C136.882 111.028 136.584 111.708 136.043 112.22C134.925 113.276 133.107 113.276 131.989 112.22L117.612 98.6413C124.106 93.606 128.257 85.9693 128.257 77.4331C128.257 62.3063 115.227 50 99.2105 50C83.1942 50 70.1641 62.3063 70.1641 77.4331C70.1641 92.5599 83.1942 104.866 99.2105 104.866C105.057 104.866 110.501 103.221 115.064 100.402L129.783 114.303C130.913 115.371 132.417 115.959 134.016 115.959C135.615 115.959 137.119 115.371 138.249 114.303C140.584 112.099 140.584 108.512 138.249 106.307ZM99.2105 101.919C84.9149 101.919 73.2847 90.9346 73.2847 77.4331C73.2847 63.9315 84.9151 52.9473 99.2105 52.9473C113.506 52.9473 125.136 63.9315 125.136 77.4331C125.136 90.9346 113.506 101.919 99.2105 101.919Z" stroke="white" stroke-width="2" mask="url(#path-2-inside-1_1320_846)"/>
<path d="M99.2125 57.3094C87.4634 57.3094 77.9052 66.3369 77.9052 77.433C77.9052 88.5292 87.4634 97.5565 99.2125 97.5565C110.961 97.5565 120.519 88.5292 120.519 77.433C120.519 66.3369 110.961 57.3094 99.2125 57.3094ZM99.2125 94.609C89.1841 94.609 81.0255 86.9039 81.0255 77.4328C81.0255 67.9618 89.1841 60.2564 99.2125 60.2564C109.24 60.2564 117.399 67.9618 117.399 77.4328C117.399 86.9039 109.24 94.609 99.2125 94.609Z" stroke="white" stroke-width="2" mask="url(#path-2-inside-1_1320_846)"/>
<path d="M59.9025 63.8092V61.6517C59.9025 60.8379 59.204 60.1781 58.3423 60.1781C57.4804 60.1781 56.782 60.8379 56.782 61.6517V63.8092C56.782 64.6232 57.4806 65.2828 58.3423 65.2828C59.204 65.283 59.9025 64.6234 59.9025 63.8092Z" stroke="white" stroke-width="2" mask="url(#path-2-inside-1_1320_846)"/>
<path d="M64.9913 63.8092V59.19C64.9913 58.3762 64.2929 57.7165 63.4314 57.7165C62.57 57.7165 61.8715 58.3762 61.8715 59.19V63.8092C61.8715 64.6232 62.57 65.2827 63.4314 65.2827C64.2929 65.2829 64.9913 64.6234 64.9913 63.8092Z" stroke="white" stroke-width="2" mask="url(#path-2-inside-1_1320_846)"/>
<path d="M70.0811 63.808V63.0565C70.0811 62.2428 69.3826 61.583 68.5211 61.583C67.6595 61.583 66.961 62.2428 66.961 63.0565V63.808C66.961 64.622 67.6595 65.2815 68.5211 65.2815C69.3826 65.2817 70.0811 64.6222 70.0811 63.808Z" stroke="white" stroke-width="2" mask="url(#path-2-inside-1_1320_846)"/>
</svg>
